<?xml version="1.0" encoding="UTF-8"?>
<svg id="Layer_1" data-name="Layer 1" xmlns="http://www.w3.org/2000/svg" viewBox="0 0 308.7 115.84">
  <defs>
    <style>
      .cls-1 {
        fill: none;
      }

      .cls-2 {
        fill: #fff;
      }
    </style>
  </defs>
  <g>
    <g>
      <path class="cls-2" d="M75.6,110.37h-10.65v-3.24h1.23c2.05-.04,2.31-.26,2.27-2.12v-14.07c.04-1.86-.22-2.08-2.27-2.12h-1.23v-3.28h13.03l4.36,15.3,4.5-15.3h12.92v3.28h-1.27c-2.05.04-2.31.26-2.27,2.12v14.07c-.04,1.86.22,2.08,2.27,2.12h1.27v3.24h-12.99v-3.24h.71c2.05-.04,2.31-.26,2.27-2.12v-15.53l-6.14,20.89h-5.03l-5.99-20.92v15.56c-.04,1.86.22,2.08,2.31,2.12h.71v3.24Z"/>
      <path class="cls-2" d="M121.65,105.65c0,2.05-.26,2.98-1.08,3.87-.93.97-2.27,1.49-4.02,1.49-1.23,0-2.38-.3-3.13-.82-.52-.33-.89-.86-1.34-1.82-1.3,1.3-1.97,1.79-3.13,2.2-.93.3-1.94.48-2.94.48-3.39,0-5.55-1.97-5.55-4.99,0-1.49.6-2.79,1.68-3.61.97-.78,1.56-.97,4.62-1.6,2.01-.41,3.05-.71,3.72-1.08.78-.41,1.27-1.27,1.27-2.23,0-1.75-1.45-2.87-3.76-2.87-1.23,0-1.86.15-2.79.75,1.45.19,2.2.89,2.2,2.16s-1.3,2.31-2.98,2.31c-1.9,0-3.17-1.15-3.17-2.83,0-2.94,3.17-4.77,8.3-4.77,3.02,0,5.55.71,6.81,1.86.97.86,1.19,1.71,1.19,4.58v6.74c0,1.12.3,1.67.93,1.67.67,0,.93-.48.93-1.67v-1.53h2.23v1.71ZM111.59,101.77c-.78.41-1.53.82-1.79.93q-2.38,1.12-2.79,1.75c-.15.22-.22.56-.22.89,0,1.15.93,1.97,2.2,1.97,1.64,0,2.61-1.12,2.61-2.98v-2.57Z"/>
      <path class="cls-2" d="M121.64,95.93v-2.79c2.94-.41,4.5-2.64,4.88-7.04h3.69v6.81h4.43v3.02h-4.43v9.16c0,1.94.3,2.53,1.38,2.53,1.19,0,1.53-.89,1.53-3.87v-1.64h2.98v2.61c0,2.31-.26,3.28-1.08,4.32-1.08,1.34-2.79,2.05-5.03,2.05-2.38,0-3.98-.71-4.95-2.16-.78-1.15-.93-1.94-.93-4.77v-8.23h-2.46Z"/>
      <path class="cls-2" d="M159.36,105.65c0,2.05-.26,2.98-1.08,3.87-.93.97-2.27,1.49-4.02,1.49-1.23,0-2.38-.3-3.13-.82-.52-.33-.89-.86-1.34-1.82-1.3,1.3-1.97,1.79-3.13,2.2-.93.3-1.94.48-2.94.48-3.39,0-5.55-1.97-5.55-4.99,0-1.49.6-2.79,1.67-3.61.97-.78,1.56-.97,4.62-1.6,2.01-.41,3.05-.71,3.72-1.08.78-.41,1.27-1.27,1.27-2.23,0-1.75-1.45-2.87-3.76-2.87-1.23,0-1.86.15-2.79.75,1.45.19,2.2.89,2.2,2.16s-1.3,2.31-2.98,2.31c-1.9,0-3.16-1.15-3.16-2.83,0-2.94,3.16-4.77,8.3-4.77,3.02,0,5.55.71,6.81,1.86.97.86,1.19,1.71,1.19,4.58v6.74c0,1.12.3,1.67.93,1.67.67,0,.93-.48.93-1.67v-1.53h2.23v1.71ZM149.3,101.77c-.78.41-1.53.82-1.79.93q-2.38,1.12-2.79,1.75c-.15.22-.22.56-.22.89,0,1.15.93,1.97,2.2,1.97,1.64,0,2.61-1.12,2.61-2.98v-2.57Z"/>
      <path class="cls-2" d="M170.04,85.54h9.12v20.14c.04,1.49.3,1.75,1.75,1.75h.86v2.94h-8.49v-2.38c-1.75,2.35-3.05,3.05-5.51,3.05-4.69,0-7.26-3.24-7.26-9.2s2.75-9.49,7.15-9.49c2.16,0,3.61.71,5.36,2.57v-4.62c.07-1.42-.26-1.75-1.75-1.75h-1.23v-3.02ZM167.17,101.44c0,4.36.93,6.37,2.94,6.37s2.9-1.97,2.9-6.07-.93-5.96-2.9-5.96-2.94,1.86-2.94,5.66Z"/>
      <path class="cls-2" d="M203.06,101.66c0,5.77-3.87,9.34-10.09,9.34s-10.13-3.54-10.13-9.49,3.91-9.23,10.13-9.23,10.09,3.57,10.09,9.38ZM189.51,101.55c0,4.77.82,6.29,3.46,6.29s3.43-1.53,3.43-6.18-.86-6.22-3.43-6.22-3.46,1.53-3.46,6.11Z"/>
      <path class="cls-2" d="M204.32,107.4h1.08c1.45-.04,1.71-.3,1.75-1.75v-8c-.04-1.45-.3-1.71-1.75-1.71h-1.08v-3.02h8.71v1.75c1.71-1.67,2.83-2.23,4.58-2.23,2.46,0,4.13,1.64,4.13,4.06,0,2.08-1.34,3.54-3.28,3.54-1.53,0-2.72-1.15-2.72-2.64,0-1.12.52-1.75,1.82-2.23-.48-.19-.93-.3-1.19-.3-.82,0-1.79.74-2.35,1.75-.37.71-.71,2.27-.71,3.5v5.55c.04,1.45.3,1.71,1.75,1.75h1.49v2.98h-12.25v-2.98Z"/>
      <path class="cls-2" d="M228.97,107.14h1.38c2.05-.04,2.31-.26,2.27-2.16v-14.04c.04-1.9-.22-2.12-2.27-2.16h-1.38v-3.24h23.27v10.16h-3.24c-.6-6.03-1.71-7.04-7.52-6.92h-1.94v7.11c2.75-.07,3.28-.63,3.35-3.95h3.13v11.32h-3.13c-.15-2.42-.33-3.2-.89-3.65-.48-.37-1.42-.56-2.27-.48-.04,0-.11,0-.19.04v5.81c-.04,1.9.22,2.12,2.27,2.16h1.56v3.24h-14.41v-3.24Z"/>
      <path class="cls-2" d="M253.39,92.91h9.08v12.73c.04,1.49.22,1.71,1.67,1.75h.93v2.98h-11.69v-2.98h1.12c1.45-.04,1.71-.3,1.71-1.75v-7.48c.04-2.01-.08-2.12-1.68-2.2h-1.15v-3.05ZM262.1,88.41c0,1.71-1.38,3.09-3.09,3.09s-3.09-1.38-3.09-3.13,1.41-3.05,3.09-3.05,3.09,1.38,3.09,3.09Z"/>
      <path class="cls-2" d="M266.12,107.4h1.08c1.45-.04,1.71-.3,1.75-1.75v-8c-.04-1.45-.3-1.71-1.75-1.71h-1.08v-3.02h8.71v1.75c1.71-1.67,2.83-2.23,4.58-2.23,2.46,0,4.13,1.64,4.13,4.06,0,2.08-1.34,3.54-3.28,3.54-1.53,0-2.72-1.15-2.72-2.64,0-1.12.52-1.75,1.82-2.23-.48-.19-.93-.3-1.19-.3-.82,0-1.79.74-2.35,1.75-.37.71-.71,2.27-.71,3.5v5.55c.04,1.45.3,1.71,1.75,1.75h1.49v2.98h-12.25v-2.98Z"/>
      <path class="cls-2" d="M302.64,104.45c-1.15,4.36-4.1,6.55-8.82,6.55-5.66,0-9.34-3.69-9.34-9.31s3.61-9.31,9.31-9.31c4.1,0,7.11,1.86,8.45,5.21.63,1.49.71,2.08.71,4.8h-12.03c.08,2.05.26,2.94.86,3.8s1.53,1.3,2.76,1.3,2.34-.45,2.98-1.15c.37-.37.56-.93.74-1.9h4.39ZM296.68,99.43c-.04-1.45-.19-2.12-.6-2.72-.45-.74-1.27-1.15-2.2-1.15s-1.86.48-2.31,1.19c-.34.56-.45,1.15-.56,2.68h5.66Z"/>
    </g>
    <g>
      <g>
        <path class="cls-2" d="M71.96,26.47c.73-11.96-8.27-9.42-6.69-21.71-5.84,14.62,3.53,12.07,6.69,21.71Z"/>
        <path class="cls-2" d="M56.72,42.4c1.39,11.03,6.98,8.3,8.85,12.91v-18.37l2.6,5.88c.05.12,4.08,9.22,6.88,15.57-3.59-12.83,5.65-16.93-.05-25.15,1.58,8.09-5.96,8.42-3.85,3.23,1.5-3.68,2.89-9.74-8.44-18.79-.07-.05-.18.01-.16.09,3.94,10.68-.6,10.04,2.47,18.47-2.8-3.88-7.12-2.96-7.12-2.96,7.24,6.62.19,7.24,3.65,13.37-3.29-.08-4.84-4.24-4.84-4.24Z"/>
        <path class="cls-2" d="M7.93,57.12c2.74-6.22,6.27-14.2,6.32-14.31l2.6-5.88v19.05c1.59-5.57,7.64-2.05,9.09-13.59,0,0-1.55,4.15-4.84,4.24,3.46-6.14-3.59-6.76,3.65-13.37,0,0-4.32-.92-7.12,2.96,3.08-8.43-1.47-7.79,2.47-18.47.03-.08-.09-.15-.16-.09-11.33,9.06-9.94,15.11-8.44,18.79,2.11,5.19-5.43,4.86-3.85-3.23-5.51,7.94,2.94,12.04.27,23.89Z"/>
        <path class="cls-2" d="M10.71,26.47c3.16-9.64,12.53-7.09,6.69-21.71,1.58,12.3-7.42,9.75-6.69,21.71Z"/>
      </g>
      <path class="cls-2" d="M75.94,63.79c-1.95-4.49-9.01-20.42-9.01-20.42v19.19h-12.18c-.5-3.51-10.52-1.43-13.54-1.43s-13.04-2.08-13.54,1.43h-12.18v-19.19s-7.06,15.94-9.01,20.42c-1.55,3.56.55,7.13,4.25,7.13h5.71c-1.05.65-2.2,1.51-3.09,2.56-.84.98-1.22,2.25-1.22,2.25,0,0,2.49,2.56,5.9,3.35,3.41.79,6.02-.43,6.02-.43l1.16,7.42,5.96,10.83-.52,7.67,2.14,2.31.57,2.07,4.62,2.07h6.45l4.62-2.07.57-2.07,2.14-2.31-.52-7.67,5.96-10.83,1.16-7.42s2.62,1.22,6.02.43c3.41-.79,5.9-3.35,5.9-3.35,0,0-.53-1.15-1.22-2.25-.72-1.16-1.77-1.98-2.81-2.56h5.42c3.7,0,5.8-3.57,4.25-7.13ZM29.42,79.26c-2.37-2.07-2.07-5.17-2.07-5.17l5.11,1.95,2.56,2.86.85,5.29-1.58-3.16s-2.49.3-4.87-1.76ZM34.95,104.2s-1.03-1.22.12-2.07,2.74,2.07,2.74,2.07h-2.86ZM47.48,104.2h-2.86s1.58-2.92,2.74-2.07.12,2.07.12,2.07ZM48.52,100.25l-.99-2.09h-1.65l-4.67,1.26-4.67-1.26h-1.65l-.99,2.09v-1.92l1.59-1.26,5.71,1.32,5.71-1.32,1.59,1.26v1.92ZM53.02,79.26c-2.37,2.07-4.87,1.76-4.87,1.76l-1.58,3.16.85-5.29,2.56-2.86,5.11-1.95s.3,3.1-2.07,5.17Z"/>
    </g>
  </g>
  <rect class="cls-1" width="308.7" height="115.84"/>
</svg>